<svg width="34" height="34" viewBox="0 0 34 34" fill="none" xmlns="http://www.w3.org/2000/svg">
<path d="M13.1519 29.1756H11.6212V26.1142H10.0905V23.0529H8.55986V19.9916H7.0292V18.3845H5.49854V15.3564H8.54326V16.8871H10.0905V21.5621H11.6212L11.6278 1.53064H14.6991V15.373H16.2298V9.21052H19.3177L19.311 15.373H20.8417V10.7379H23.923V16.9004H25.4536V12.2685H26.9876V13.7992H28.5382V24.5537H27.0075V29.1756H25.4769V32.2668H13.1552V29.1756H13.1519Z" fill="#5D24E4"/>
<path d="M11.6211 0H14.6924V1.53066H11.6211V0ZM26.9842 12.2686H28.5348V13.7992H26.9842V12.2686ZM28.5348 13.7992H30.0654V24.5537H28.5348V13.7992ZM27.0041 24.5537H28.5348V29.1756H27.0041V24.5537ZM25.4734 32.2668H13.1518V29.1756H11.6211V33.7975H27.0041V29.1756H25.4734V32.2668ZM10.0904 26.1143H11.6211V29.1756H10.0904V26.1143ZM8.55977 23.0529H10.0904V26.1143H8.55977V23.0529ZM7.0291 19.9916H8.55977V23.0529H7.0291V19.9916ZM5.49844 18.3846H7.0291V19.9916H5.49844V18.3846ZM8.54316 15.3564V13.8258H3.96777V18.3846H5.49844V15.3564H8.54316Z" fill="white"/>
<path d="M10.0902 16.8871V21.5621H11.6209V1.53064H10.0902V15.3564H8.54297V16.8871H10.0902ZM16.2229 15.373V9.2072H19.3107V7.67654H16.2229V1.53064H14.6922V15.373H16.2229ZM20.8414 15.373V10.7379H23.9227V9.2072H19.3107V15.373H20.8414ZM25.4533 16.9004V12.2685H26.984V10.7379H23.9227V16.9004H25.4533Z" fill="white"/>
</svg>
