<svg width="24" height="24" viewBox="0 0 24 24" fill="none" xmlns="http://www.w3.org/2000/svg">
<path d="M6.2064 0.356921L10.0968 4.29323H13.902L17.7936 0.358135C18.0188 0.130379 18.3242 0.00242739 18.6426 0.00242739C18.961 0.00242739 19.2664 0.130379 19.4916 0.358135C19.7168 0.58589 19.8433 0.894792 19.8433 1.21689C19.8433 1.53898 19.7168 1.84789 19.4916 2.07564L17.2968 4.29323H19.8C20.3516 4.29323 20.8977 4.40311 21.4073 4.6166C21.9168 4.8301 22.3798 5.14302 22.7698 5.53751C23.1599 5.93199 23.4692 6.40032 23.6803 6.91574C23.8914 7.43116 24 7.98359 24 8.54147V18.2518C24 18.8096 23.8914 19.3621 23.6803 19.8775C23.4692 20.3929 23.1599 20.8612 22.7698 21.2557C22.3798 21.6502 21.9168 21.9631 21.4073 22.1766C20.8977 22.3901 20.3516 22.5 19.8 22.5H4.2C3.64845 22.5 3.1023 22.3901 2.59273 22.1766C2.08316 21.9631 1.62016 21.6502 1.23015 21.2557C0.840145 20.8612 0.530776 20.3929 0.319706 19.8775C0.108636 19.3621 0 18.8096 0 18.2518V8.54147C0 7.98359 0.108636 7.43116 0.319706 6.91574C0.530776 6.40032 0.840145 5.93199 1.23015 5.53751C1.62016 5.14302 2.08316 4.8301 2.59273 4.6166C3.1023 4.40311 3.64845 4.29323 4.2 4.29323H6.702L4.5084 2.07321C4.39691 1.96044 4.30847 1.82656 4.24813 1.67921C4.18779 1.53187 4.15673 1.37395 4.15673 1.21446C4.15673 0.892365 4.28323 0.583462 4.5084 0.355707C4.73357 0.127952 5.03896 2.66753e-09 5.3574 0C5.51507 -1.32082e-09 5.6712 0.0314129 5.81687 0.0924452C5.96255 0.153478 6.09491 0.242934 6.2064 0.355707V0.356921ZM19.8 6.7208H4.2C3.75254 6.72082 3.32113 6.88941 2.9899 7.19371C2.65866 7.498 2.45136 7.91618 2.4084 8.36669L2.4 8.54147V18.2518C2.40002 18.7044 2.5667 19.1407 2.86754 19.4758C3.16838 19.8108 3.58181 20.0205 4.0272 20.0639L4.2 20.0724H19.8C20.2475 20.0724 20.6789 19.9038 21.0101 19.5995C21.3413 19.2952 21.5486 18.877 21.5916 18.4265L21.6 18.2518V8.54147C21.6 8.0586 21.4104 7.5955 21.0728 7.25406C20.7352 6.91262 20.2774 6.7208 19.8 6.7208ZM7.2 10.3622C7.51826 10.3622 7.82348 10.49 8.04853 10.7177C8.27357 10.9453 8.4 11.254 8.4 11.5759V14.0035C8.39995 14.3254 8.2735 14.6341 8.04846 14.8617C7.82342 15.0892 7.51823 15.2171 7.2 15.2171C6.88177 15.2171 6.57657 15.0892 6.35154 14.8617C6.1265 14.6341 6.00005 14.3254 6 14.0035V11.5759C6 11.254 6.12643 10.9453 6.35147 10.7177C6.57652 10.49 6.88174 10.3622 7.2 10.3622ZM16.8 10.3622C17.1183 10.3622 17.4235 10.49 17.6485 10.7177C17.8736 10.9453 18 11.254 18 11.5759V14.0035C18 14.3254 17.8735 14.6341 17.6485 14.8617C17.4234 15.0892 17.1182 15.2171 16.8 15.2171C16.4818 15.2171 16.1766 15.0892 15.9515 14.8617C15.7265 14.6341 15.6 14.3254 15.6 14.0035V11.5759C15.6 11.254 15.7264 10.9453 15.9515 10.7177C16.1765 10.49 16.4817 10.3622 16.8 10.3622Z" fill="#B0B8BC"/>
</svg>
